<svg width="170" height="26" fill="none" xmlns="http://www.w3.org/2000/svg"><path d="M36.219 11.678l-5.862-5.862L24.941.4a1.364 1.364 0 00-1.93 0L10.768 12.643l3.776 3.776 3.776-3.776 5.656-5.656 2.666 2.665 2.99 2.99-5.656 5.657-1.883-1.883-3.776 3.776 4.694 4.694a1.365 1.365 0 001.93 0l5.29-5.291 5.988-5.988a1.364 1.364 0 000-1.929z" fill="#3844FF"></path><path d="M22.095 8.869l.006.003.003-.003 3.77 3.773-9.42 9.422-.001-.003-2.825 2.824a1.359 1.359 0 01-1.929 0L.42 13.609a1.35 1.35 0 01-.26-.367 1.365 1.365 0 01.24-1.607l2.755-2.69L11.699.401a1.364 1.364 0 011.929 0l4.69 4.688-3.775 3.777-1.88-1.88-5.632 5.634 5.646 5.668 2.691-2.693 6.727-6.726z" fill="#38C9FF"></path><path d="M42.58 18.208V6.948h2.585v9.006h3.177v2.254h-5.763zm6.457-3.879c0-.57.086-1.102.257-1.594.177-.492.436-.921.779-1.288a3.74 3.74 0 011.27-.88c.503-.214 1.079-.321 1.728-.321a4.53 4.53 0 011.666.29c.494.194.911.461 1.254.801.348.335.615.736.802 1.202.187.466.28.968.28 1.507 0 .152-.005.283-.015.393-.01.11-.031.272-.062.487H51.49c0 .235.029.458.086.667.062.21.155.393.28.55.13.157.301.28.514.369.213.089.472.133.779.133.436 0 .763-.084.981-.251a1.34 1.34 0 00.452-.628h2.398a2.754 2.754 0 01-.397 1.028c-.197.32-.454.6-.771.84a3.75 3.75 0 01-1.137.574c-.441.141-.94.212-1.495.212-.67 0-1.264-.105-1.783-.314-.514-.21-.948-.5-1.3-.872a3.786 3.786 0 01-.795-1.303 4.752 4.752 0 01-.265-1.602zm2.453-.817h3.193c0-.47-.148-.843-.444-1.115-.29-.277-.675-.416-1.153-.416-.456 0-.838.134-1.144.4-.301.262-.452.64-.452 1.131zm6.847.817c0-.581.09-1.12.273-1.618.187-.497.444-.924.77-1.28a3.742 3.742 0 011.16-.855 3.3 3.3 0 011.434-.314c.576 0 1.074.123 1.495.369.426.246.745.557.958.934v-1.107h2.437v7.75h-2.437v-1.092c-.192.356-.501.66-.927.911-.426.251-.934.377-1.526.377-.509 0-.987-.105-1.433-.314a3.743 3.743 0 01-1.16-.856 3.983 3.983 0 01-.771-1.288 4.679 4.679 0 01-.273-1.617zm2.422 0c0 .267.044.523.132.77.094.24.218.45.374.627.161.173.353.315.576.425.224.104.473.157.748.157a1.74 1.74 0 001.324-.582 1.9 1.9 0 00.374-.628c.093-.24.14-.497.14-.77 0-.266-.047-.517-.14-.753a2.01 2.01 0 00-.374-.628 1.662 1.662 0 00-.569-.432 1.758 1.758 0 00-.755-.157 1.74 1.74 0 00-.748.157 1.743 1.743 0 00-.576.432c-.156.183-.28.393-.374.628a2.132 2.132 0 00-.132.754zm7.781-.016c0-.58.089-1.117.265-1.61.182-.492.434-.915.756-1.271a3.626 3.626 0 011.16-.856c.446-.21.937-.314 1.472-.314.54 0 1.025.11 1.456.33.43.22.763.544.997.973v-1.107h2.437v7.703c0 1.33-.345 2.287-1.035 2.873-.691.592-1.742.888-3.154.888-.79 0-1.454-.084-1.994-.252-.535-.162-.968-.384-1.3-.667a2.472 2.472 0 01-.717-.99 3.852 3.852 0 01-.25-1.209h2.438c.042.346.198.65.468.911.275.262.7.393 1.277.393.53 0 .965-.144 1.308-.432.348-.283.522-.74.522-1.374v-1.217c-.203.33-.509.612-.92.848-.41.235-.915.353-1.518.353a3.734 3.734 0 01-1.456-.283 3.471 3.471 0 01-1.168-.824 3.926 3.926 0 01-.771-1.264 4.547 4.547 0 01-.273-1.602zm2.438.016c0 .267.044.523.132.77.094.24.218.45.374.627.161.173.353.315.576.425.224.104.475.157.756.157.264 0 .511-.05.74-.15a1.69 1.69 0 00.576-.424c.16-.183.285-.392.374-.628a2.09 2.09 0 00.14-.777c0-.267-.047-.518-.14-.754a2.013 2.013 0 00-.374-.628 1.661 1.661 0 00-.569-.432 1.739 1.739 0 00-.747-.157c-.275 0-.53.052-.763.157a1.72 1.72 0 00-.584.432 2.075 2.075 0 00-.366.636 2.27 2.27 0 00-.125.746zm8.116.731v-4.602h2.422v3.973c0 .555.099 1.008.296 1.358.197.346.55.519 1.06.519.508 0 .882-.176 1.12-.527.245-.356.367-.834.367-1.436v-3.887h2.437v7.75h-2.437V17.1a2.246 2.246 0 01-.974.957c-.436.23-.958.346-1.565.346-.53 0-.966-.084-1.308-.251a2.495 2.495 0 01-.826-.636 2.324 2.324 0 01-.483-1.037 7.94 7.94 0 01-.109-1.42zm9.37-.731c0-.57.086-1.102.257-1.594a3.68 3.68 0 01.78-1.288 3.74 3.74 0 011.268-.88c.504-.214 1.08-.321 1.73-.321a4.53 4.53 0 011.666.29c.493.194.91.461 1.254.801.347.335.615.736.802 1.202.187.466.28.968.28 1.507 0 .152-.005.283-.016.393-.01.11-.03.272-.062.487h-5.506c0 .235.029.458.086.667.062.21.156.393.28.55.13.157.302.28.514.369.213.089.473.133.78.133.435 0 .762-.084.98-.251a1.34 1.34 0 00.452-.628h2.399a2.773 2.773 0 01-.398 1.028 3.1 3.1 0 01-.77.84 3.77 3.77 0 01-1.137.574 4.91 4.91 0 01-1.496.212c-.67 0-1.264-.105-1.783-.314-.514-.21-.948-.5-1.3-.872a3.787 3.787 0 01-.795-1.303 4.755 4.755 0 01-.265-1.602zm2.453-.817h3.193c0-.47-.148-.843-.444-1.115-.29-.277-.674-.416-1.152-.416-.457 0-.839.134-1.145.4-.301.262-.452.64-.452 1.131zm6.816 2.105h2.391c0 .408.114.701.343.879.228.178.521.267.88.267.296 0 .537-.055.724-.165.192-.115.288-.3.288-.557a.538.538 0 00-.125-.37.92.92 0 00-.366-.259 4.749 4.749 0 00-.638-.235 38.42 38.42 0 01-.935-.298 19.153 19.153 0 01-.926-.322 3.19 3.19 0 01-.756-.424 1.817 1.817 0 01-.514-.613c-.12-.24-.179-.539-.179-.895 0-.408.08-.762.242-1.06.16-.298.386-.544.677-.738a3.14 3.14 0 011.044-.432c.405-.1.851-.15 1.339-.15.597 0 1.111.069 1.542.205.431.136.784.322 1.059.558.275.235.478.513.607.832.135.32.203.662.203 1.028h-2.406c0-.319-.083-.568-.25-.745-.16-.178-.407-.267-.739-.267a1.2 1.2 0 00-.655.172.548.548 0 00-.272.503c0 .152.041.275.125.369.088.089.215.17.381.243.166.073.371.15.615.228.244.073.525.162.841.267.343.094.662.199.958.314.296.115.556.257.779.424.228.162.408.369.537.62.135.246.203.56.203.942 0 .45-.094.835-.281 1.155-.186.314-.438.57-.755.77a3.17 3.17 0 01-1.09.423 6.238 6.238 0 01-1.308.134c-1.137 0-2.02-.239-2.648-.715-.623-.481-.935-1.178-.935-2.088zm12.152-1.288c0-.555.096-1.078.289-1.57.197-.492.48-.924.848-1.296a4.086 4.086 0 011.34-.887c.524-.22 1.121-.33 1.791-.33.67 0 1.267.11 1.791.33.53.22.976.515 1.339.887.369.372.649.804.842 1.296.192.492.288 1.015.288 1.57 0 .555-.096 1.08-.288 1.578a3.773 3.773 0 01-.842 1.296 3.968 3.968 0 01-1.339.887c-.524.22-1.121.33-1.791.33-.67 0-1.267-.11-1.791-.33a4.084 4.084 0 01-1.34-.887 3.863 3.863 0 01-.848-1.296 4.283 4.283 0 01-.289-1.578zm2.438 0c0 .277.041.536.124.777.089.236.211.445.366.628.161.178.354.32.577.424.223.1.472.15.747.15.276 0 .527-.05.756-.15a1.68 1.68 0 00.584-.424c.161-.183.285-.392.374-.628.093-.235.14-.495.14-.777 0-.267-.047-.521-.14-.762a1.913 1.913 0 00-.374-.628 1.695 1.695 0 00-.576-.424 1.814 1.814 0 00-.764-.157 1.736 1.736 0 00-1.324.581 2.003 2.003 0 00-.366.628 2.32 2.32 0 00-.124.762zm6.777-2.042v-1.83h1.386v-.674c0-.697.096-1.246.288-1.65.192-.402.426-.703.701-.902.275-.2.574-.325.896-.377a5.79 5.79 0 011.791-.016c.218.042.402.09.553.142v1.774a3.738 3.738 0 00-.366-.07 2.308 2.308 0 00-.421-.032c-.13 0-.254.01-.374.031a.74.74 0 00-.327.126.766.766 0 00-.233.298c-.058.126-.086.301-.086.526v.825h1.807v1.83h-1.792v5.92h-2.437v-5.92H119.1zm10.353.291c0-.77.13-1.51.389-2.222a5.54 5.54 0 011.145-1.892 5.487 5.487 0 011.861-1.312c.743-.324 1.592-.487 2.547-.487.82 0 1.557.12 2.211.362a5.25 5.25 0 011.698.997 4.83 4.83 0 011.145 1.484c.291.57.472 1.175.545 1.814H138.3a3.113 3.113 0 00-.32-.911 2.274 2.274 0 00-.592-.73 2.651 2.651 0 00-.856-.487 3.12 3.12 0 00-1.098-.18c-.53 0-1.005.099-1.425.298a3.11 3.11 0 00-1.052.785 3.393 3.393 0 00-.654 1.138 4.09 4.09 0 00-.226 1.343c0 .492.083.955.25 1.39.166.434.394.814.685 1.138.296.32.649.573 1.059.762.415.188.88.283 1.394.283.753 0 1.368-.192 1.846-.574.477-.382.796-.85.957-1.405h2.742a4.906 4.906 0 01-.616 1.68 5.211 5.211 0 01-1.16 1.374 5.273 5.273 0 01-1.674.935 6.407 6.407 0 01-2.126.337c-.935 0-1.773-.16-2.516-.479a5.856 5.856 0 01-1.884-1.295 5.618 5.618 0 01-1.176-1.885 6.322 6.322 0 01-.405-2.261zm12.649 1.751c0-.555.096-1.078.288-1.57a3.85 3.85 0 01.849-1.296 4.081 4.081 0 011.339-.887c.524-.22 1.121-.33 1.791-.33.67 0 1.267.11 1.791.33.53.22.976.515 1.34.887.368.372.649.804.841 1.296.192.492.288 1.015.288 1.57 0 .555-.096 1.08-.288 1.578a3.77 3.77 0 01-.841 1.296c-.364.371-.81.667-1.34.887-.524.22-1.121.33-1.791.33-.67 0-1.267-.11-1.791-.33a4.08 4.08 0 01-1.339-.887 3.85 3.85 0 01-.849-1.296 4.303 4.303 0 01-.288-1.578zm2.437 0c0 .277.042.536.125.777.088.236.21.445.366.628a1.8 1.8 0 00.576.424c.223.1.472.15.748.15.275 0 .527-.05.755-.15.234-.104.428-.246.584-.424.161-.183.286-.392.374-.628.093-.235.14-.495.14-.777 0-.267-.047-.521-.14-.762a1.896 1.896 0 00-.374-.628 1.695 1.695 0 00-.576-.424 1.813 1.813 0 00-.763-.157 1.738 1.738 0 00-1.324.581 1.966 1.966 0 00-.366.628 2.32 2.32 0 00-.125.762zm7.237 0c0-.581.09-1.12.272-1.618.187-.497.444-.924.771-1.28a3.742 3.742 0 011.16-.855c.442-.21.919-.314 1.433-.314.577 0 1.075.123 1.495.369.426.246.745.557.958.934V6.948h2.438v11.26h-2.438v-1.092c-.192.356-.501.66-.926.911-.426.251-.935.377-1.527.377a3.34 3.34 0 01-1.433-.314 3.743 3.743 0 01-1.16-.856 3.986 3.986 0 01-.771-1.288 4.671 4.671 0 01-.272-1.617zm2.421 0c0 .267.045.523.133.77.093.24.218.45.374.627.161.173.353.315.576.425.223.104.472.157.747.157a1.738 1.738 0 001.324-.582c.161-.178.286-.387.374-.628.094-.24.14-.497.14-.77 0-.266-.046-.517-.14-.753a2.006 2.006 0 00-.374-.628 1.656 1.656 0 00-.568-.432 1.758 1.758 0 00-.756-.157c-.275 0-.524.052-.747.157a1.745 1.745 0 00-.576.432 2.216 2.216 0 00-.374.628 2.137 2.137 0 00-.133.754zm7.766 0c0-.57.086-1.102.257-1.594.177-.492.436-.921.779-1.288a3.742 3.742 0 011.269-.88c.504-.214 1.08-.321 1.729-.321.618 0 1.174.097 1.667.29.493.194.911.461 1.254.801.347.335.615.736.802 1.202.187.466.28.968.28 1.507 0 .152-.005.283-.016.393-.01.11-.031.272-.062.487h-5.506c0 .235.029.458.086.667.062.21.156.393.28.55.13.157.302.28.514.369.213.089.473.133.779.133.436 0 .763-.084.981-.251a1.34 1.34 0 00.452-.628h2.399a2.773 2.773 0 01-.398 1.028c-.197.32-.454.6-.771.84a3.747 3.747 0 01-1.137.574 4.889 4.889 0 01-1.495.212c-.669 0-1.264-.105-1.783-.314-.514-.21-.948-.5-1.301-.872a3.804 3.804 0 01-.794-1.303 4.767 4.767 0 01-.265-1.602zm2.453-.817h3.193c0-.47-.148-.843-.444-1.115-.29-.277-.675-.416-1.152-.416-.457 0-.839.134-1.145.4-.301.262-.452.64-.452 1.131z" fill="#323232"></path></svg>